Coordinates
version=1
nRows=34
nColumns=38
inDegrees=no

Units are S.I. units (second, meters, Newtons, ...)
If the header above contains a line with 'inDegrees', this indicates whether rotational values are in degrees (yes) or radians (no).

endheader
time	pelvis_tilt	pelvis_list	pelvis_rotation	pelvis_tx	pelvis_ty	pelvis_tz	hip_flexion_r	hip_adduction_r	hip_rotation_r	knee_angle_r	ankle_angle_r	subtalar_angle_r	mtp_angle_r	hip_flexion_l	hip_adduction_l	hip_rotation_l	knee_angle_l	ankle_angle_l	subtalar_angle_l	mtp_angle_l	lumbar_extension	lumbar_bending	lumbar_rotation	arm_flex_r	arm_add_r	arm_rot_r	elbow_flex_r	pro_sup_r	wrist_flex_r	wrist_dev_r	arm_flex_l	arm_add_l	arm_rot_l	elbow_flex_l	pro_sup_l	wrist_flex_l	wrist_dev_l
0.81	-2.98302	1.45769	-1.68706	0.677127	0.140447	0.943023	0.29439	-0.211476	-0.176897	1.12236	0.00874803	0	0	-0.0726359	0.0304481	-0.174799	0.233507	0.142255	0	0	-0.195597	-0.0366827	-0.13881	-0.00826978	-0.30893	0.398454	0.703342	1.34267	0	0	-0.0315021	-0.392793	0.392534	0.780488	0.95861	0	0
0.82	-3.02258	1.45629	-1.64325	0.676549	0.149543	0.94373	0.303423	-0.215811	-0.202991	1.0917	0.0263388	0	0	-0.0920102	0.0267739	-0.167791	0.22002	0.143506	0	0	-0.198447	-0.030854	-0.145769	-0.00984945	-0.308649	0.393376	0.712621	1.33678	0	0	-0.0277409	-0.396503	0.378233	0.792414	0.960807	0	0
0.83	-3.06842	1.45436	-1.59394	0.676095	0.158502	0.944367	0.309402	-0.21853	-0.230899	1.05492	0.0387201	0	0	-0.11153	0.0219895	-0.160996	0.206618	0.144782	0	0	-0.202231	-0.0241131	-0.151871	-0.010386	-0.308115	0.388136	0.720593	1.33284	0	0	-0.023333	-0.399857	0.364435	0.803655	0.961565	0	0
0.84	-3.1054	1.45338	-1.55476	0.675789	0.167293	0.944698	0.317492	-0.215711	-0.247027	1.01612	0.0479668	0	0	-0.129136	0.0180428	-0.155225	0.194385	0.14643	0	0	-0.205199	-0.0184184	-0.156966	-0.00988491	-0.307351	0.383712	0.727151	1.33054	0	0	-0.0186861	-0.40327	0.351188	0.814773	0.96135	0	0
0.85	-3.13626	1.45187	-1.5216	0.675535	0.176089	0.944898	0.323417	-0.213662	-0.265142	0.974446	0.0570214	0	0	-0.147169	0.014671	-0.149112	0.182292	0.148036	0	0	-0.208755	-0.0133331	-0.162191	-0.00871003	-0.306628	0.380955	0.732598	1.32915	0	0	-0.0137247	-0.406871	0.339154	0.825374	0.959903	0	0
0.86	3.12225	1.45038	-1.49479	0.675366	0.184866	0.944913	0.328006	-0.211973	-0.284636	0.930154	0.065799	0	0	-0.165024	0.0118872	-0.143089	0.170423	0.14971	0	0	-0.212363	-0.00900957	-0.167105	-0.00713252	-0.305684	0.378758	0.736965	1.32924	0	0	-0.00832831	-0.410623	0.328577	0.835193	0.958674	0	0
0.87	3.10346	1.44921	-1.47397	0.675291	0.193625	0.944701	0.331656	-0.210341	-0.305082	0.883445	0.0737229	0	0	-0.182353	0.00966414	-0.137218	0.158849	0.151661	0	0	-0.215738	-0.0054683	-0.172004	-0.00488947	-0.304634	0.378065	0.740158	1.32991	0	0	-0.00285186	-0.414566	0.319081	0.844616	0.956857	0	0
0.88	3.09083	1.44854	-1.45929	0.675274	0.202364	0.944252	0.334712	-0.208993	-0.326481	0.834682	0.080116	0	0	-0.198922	0.0080377	-0.131588	0.147717	0.154009	0	0	-0.218827	-0.00272746	-0.176803	-0.00248586	-0.303291	0.377448	0.742516	1.33175	0	0	0.00283893	-0.418635	0.310843	0.853755	0.954757	0	0
0.89	3.08463	1.44859	-1.45111	0.675321	0.211069	0.943564	0.337844	-0.208122	-0.349192	0.784891	0.0850545	0	0	-0.214297	0.00709558	-0.126643	0.137474	0.15673	0	0	-0.221497	-0.000880405	-0.181323	-1.8965e-05	-0.301806	0.37719	0.744165	1.33468	0	0	0.00883934	-0.422675	0.303732	0.86258	0.951846	0	0
0.9	3.08054	1.44885	-1.44564	0.675536	0.219738	0.942716	0.340604	-0.206353	-0.372871	0.733852	0.0891764	0	0	-0.229209	0.00627662	-0.122649	0.127989	0.159968	0	0	-0.224256	0.000544054	-0.184821	0.00246978	-0.300068	0.376381	0.745209	1.33937	0	0	0.0153784	-0.426586	0.297872	0.870871	0.947993	0	0
0.91	3.09999	1.44945	-1.45848	0.676424	0.228269	0.941632	0.345903	-0.194879	-0.389092	0.684289	0.086685	0	0	-0.243832	0.00201879	-0.125055	0.117428	0.166756	0	0	-0.227438	-0.00222043	-0.190481	0.00331136	-0.296674	0.37588	0.745799	1.34566	0	0	0.0239774	-0.432005	0.293854	0.878229	0.945583	0	0
0.92	3.09793	1.45095	-1.45674	0.677016	0.236982	0.940361	0.349945	-0.192204	-0.411246	0.633467	0.0936123	0	0	-0.257935	0.00134062	-0.122979	0.1076	0.170572	0	0	-0.229182	-0.00149109	-0.191597	0.00551668	-0.294913	0.375513	0.745859	1.3524	0	0	0.0311169	-0.435288	0.289543	0.884425	0.947781	0	0
0.93	3.09668	1.45333	-1.45689	0.677848	0.24569	0.938865	0.355114	-0.188309	-0.431301	0.583492	0.101535	0	0	-0.271444	0.000853735	-0.121995	0.0974132	0.174601	0	0	-0.230149	-0.00119337	-0.191299	0.00733375	-0.292921	0.374408	0.745579	1.35889	0	0	0.0384701	-0.438162	0.285943	0.890157	0.949763	0	0
0.94	3.09641	1.45635	-1.45861	0.678858	0.254404	0.937188	0.360741	-0.183103	-0.448736	0.534196	0.110552	0	0	-0.284582	0.000532905	-0.121563	0.0868767	0.178656	0	0	-0.230531	-0.00117726	-0.190072	0.0089489	-0.2908	0.373077	0.744763	1.36603	0	0	0.0461912	-0.440754	0.283059	0.895064	0.953052	0	0
0.95	3.09746	1.46017	-1.46242	0.680018	0.263099	0.935336	0.367198	-0.176643	-0.4622	0.48621	0.120361	0	0	-0.2971	0.00057144	-0.12153	0.0761128	0.182585	0	0	-0.230259	-0.00138222	-0.188	0.0107403	-0.288847	0.372225	0.743371	1.37341	0	0	0.0540046	-0.442687	0.280376	0.89857	0.958296	0	0
0.96	3.09557	1.46478	-1.46479	0.681438	0.271723	0.933322	0.374731	-0.167814	-0.46907	0.439548	0.129897	0	0	-0.308601	0.000561573	-0.1231	0.0658446	0.186622	0	0	-0.229413	-0.00145641	-0.18425	0.012875	-0.287048	0.371595	0.741399	1.38107	0	0	0.0620282	-0.444235	0.27882	0.900201	0.96655	0	0
0.97	3.09427	1.46986	-1.46798	0.682872	0.280409	0.9312	0.382488	-0.157975	-0.469107	0.395005	0.138694	0	0	-0.319746	0.000899988	-0.124108	0.0553813	0.190044	0	0	-0.2279	-0.00141129	-0.17987	0.0147426	-0.285605	0.371012	0.738834	1.38878	0	0	0.0704856	-0.444746	0.277856	0.90016	0.976045	0	0
0.98	3.08996	1.47556	-1.46848	0.68436	0.289123	0.929002	0.390318	-0.146718	-0.461813	0.352468	0.146106	0	0	-0.32951	0.00102347	-0.125709	0.0464778	0.193787	0	0	-0.225689	-0.000851041	-0.17519	0.0169637	-0.284222	0.370676	0.735029	1.39622	0	0	0.0786403	-0.444294	0.277187	0.898588	0.987077	0	0
0.99	3.08305	1.48122	-1.46652	0.685885	0.297896	0.926799	0.397158	-0.134303	-0.446889	0.312492	0.151805	0	0	-0.338291	0.000795598	-0.128524	0.0398573	0.198216	0	0	-0.22346	0.000250662	-0.170263	0.0195213	-0.283432	0.371858	0.730606	1.40076	0	0	0.0866933	-0.443061	0.277055	0.895838	0.996333	0	0
1	3.07589	1.48627	-1.46303	0.687355	0.306897	0.924658	0.402042	-0.122522	-0.428072	0.277173	0.15603	0	0	-0.346279	-0.000179215	-0.132291	0.036515	0.20388	0	0	-0.221356	0.00178694	-0.166399	0.0220745	-0.282968	0.374507	0.725124	1.40432	0	0	0.0942491	-0.441328	0.277005	0.891815	1.00691	0	0
1.01	3.06622	1.49013	-1.45521	0.688711	0.316227	0.922642	0.403884	-0.11203	-0.408581	0.246903	0.157782	0	0	-0.354342	-0.00231323	-0.136195	0.0360197	0.210453	0	0	-0.219849	0.00416012	-0.164294	0.0242907	-0.282478	0.377096	0.718959	1.40645	0	0	0.100669	-0.439228	0.277452	0.887426	1.01641	0	0
1.02	3.05678	1.49299	-1.44645	0.689956	0.325874	0.920702	0.40368	-0.103262	-0.389831	0.223461	0.157821	0	0	-0.36194	-0.00514278	-0.141234	0.0391357	0.218362	0	0	-0.218735	0.00712236	-0.163445	0.0261557	-0.282238	0.379774	0.712425	1.40792	0	0	0.105746	-0.436952	0.278701	0.883005	1.02348	0	0
1.03	3.05625	1.49498	-1.44471	0.690992	0.335924	0.918791	0.404766	-0.0991042	-0.379312	0.215988	0.160735	0	0	-0.369639	-0.00813701	-0.145215	0.0444995	0.226158	0	0	-0.217675	0.0100364	-0.164633	0.0270601	-0.282309	0.382194	0.706385	1.40858	0	0	0.108926	-0.434713	0.280538	0.879487	1.02662	0	0
1.04	3.0534	1.49543	-1.43863	0.691845	0.346494	0.917034	0.404569	-0.0970607	-0.373629	0.219754	0.162996	0	0	-0.377923	-0.0125735	-0.149542	0.052751	0.234763	0	0	-0.21701	0.0138947	-0.167724	0.0271891	-0.282813	0.385351	0.699677	1.409	0	0	0.110226	-0.431993	0.282263	0.875799	1.02996	0	0
1.05	3.0562	1.49541	-1.43673	0.692572	0.357401	0.915363	0.404823	-0.097863	-0.373436	0.234726	0.162271	0	0	-0.38439	-0.0177914	-0.155409	0.0660975	0.244729	0	0	-0.216145	0.0178891	-0.172426	0.0267528	-0.28354	0.388518	0.692865	1.40928	0	0	0.10966	-0.429119	0.283696	0.872582	1.03379	0	0
1.06	3.06301	1.49517	-1.43749	0.693155	0.368643	0.913805	0.40482	-0.100958	-0.377465	0.2575	0.157281	0	0	-0.389121	-0.0237742	-0.16204	0.0837436	0.255324	0	0	-0.214764	0.0221465	-0.178498	0.0254109	-0.28436	0.390585	0.686137	1.40921	0	0	0.107315	-0.425754	0.284763	0.869626	1.0376	0	0
1.07	3.07524	1.49503	-1.4427	0.693722	0.380209	0.912325	0.403599	-0.105142	-0.383295	0.282446	0.152459	0	0	-0.392195	-0.0303746	-0.168546	0.104892	0.265389	0	0	-0.212592	0.026228	-0.185286	0.0229712	-0.285246	0.392113	0.679451	1.40859	0	0	0.103387	-0.422242	0.285863	0.867026	1.04137	0	0
1.08	3.08692	1.4948	-1.44685	0.694338	0.392016	0.910993	0.400826	-0.109287	-0.390213	0.305623	0.148659	0	0	-0.393478	-0.0381067	-0.175532	0.129945	0.274583	0	0	-0.209959	0.0305428	-0.192533	0.0198497	-0.286064	0.392925	0.672748	1.40761	0	0	0.09794	-0.4185	0.286647	0.864636	1.04495	0	0
1.09	3.08523	1.49423	-1.43766	0.695079	0.403934	0.909927	0.395288	-0.11055	-0.394423	0.320295	0.138756	0	0	-0.393015	-0.0479489	-0.18378	0.158742	0.282677	0	0	-0.207365	0.0360711	-0.199381	0.0164247	-0.286966	0.393312	0.665878	1.40639	0	0	0.0916017	-0.414178	0.286986	0.861827	1.04836	0	0
1.1	3.06662	1.49363	-1.41266	0.696098	0.415886	0.909144	0.389657	-0.109647	-0.398245	0.329769	0.117289	0	0	-0.390126	-0.0599634	-0.193977	0.191979	0.289404	0	0	-0.204722	0.0428681	-0.20452	0.0128232	-0.28791	0.392995	0.658757	1.40465	0	0	0.0848561	-0.409101	0.286971	0.858268	1.05151	0	0
1.11	3.02763	1.49376	-1.36927	0.697581	0.427793	0.908562	0.384358	-0.105742	-0.400192	0.334621	0.085785	0	0	-0.383391	-0.0743891	-0.206896	0.230709	0.294191	0	0	-0.201264	0.0507738	-0.207315	0.00919546	-0.288461	0.391793	0.651239	1.4025	0	0	0.0776287	-0.40365	0.286603	0.854016	1.05451	0	0
1.12	2.974	1.49506	-1.313	0.6995	0.439714	0.908023	0.382923	-0.10243	-0.406188	0.346263	0.0578453	0	0	-0.371801	-0.0909366	-0.222084	0.27592	0.296346	0	0	-0.196272	0.0589706	-0.208032	0.00489656	-0.288286	0.388191	0.643649	1.40036	0	0	0.0695803	-0.398191	0.286044	0.849679	1.05746	0	0
1.13	2.8867	1.49797	-1.22452	0.701576	0.451847	0.907566	0.382604	-0.095623	-0.40694	0.357054	0.0366494	0	0	-0.355335	-0.109986	-0.237432	0.325656	0.294306	0	0	-0.188006	0.0686686	-0.206438	-0.000534169	-0.288775	0.384061	0.635664	1.39837	0	0	0.0609715	-0.391327	0.285973	0.843435	1.06044	0	0
1.14	2.8246	1.49981	-1.16187	0.70396	0.463919	0.907165	0.389723	-0.0975384	-0.420783	0.390872	0.0318892	0	0	-0.337592	-0.128199	-0.249896	0.379481	0.2871	0	0	-0.181679	0.07612	-0.205529	-0.0049163	-0.289346	0.382832	0.629176	1.39571	0	0	0.0503318	-0.386476	0.285103	0.84049	1.06262	0	0
